# xmcd
#
# Track frame offsets: 
#        150
#        8113
#        65238
#        137924
#        139958
#        166839
#        224510
#
# Disc length: 3603 seconds
#
# Revision: 0
# Processed by: cddbd v1.5.2PL0 Copyright (c) Steve Scherf et al.
# Submitted via: ExactAudioCopy v0.99pb3
#
DISCID=6c0e1107
DTITLE=Anders Osborne - Tipitina's Live 2006 - Disc 1
DYEAR=2006
DGENRE=New Orleans
TTITLE0=Introduction
TTITLE1=Ya Ya
TTITLE2=Aim Way High
TTITLE3=Stage banter
TTITLE4=Katrina
TTITLE5=Darkness At The Bottom
TTITLE6=Life
EXTD=
EXTT0=
EXTT1=
EXTT2=
EXTT3=
EXTT4=
EXTT5=
EXTT6=
PLAYORDER=
